<svg width="28" height="28" viewBox="0 0 28 28" fill="none" xmlns="http://www.w3.org/2000/svg">
<g clip-path="url(#clip0_231_3365)">
<path d="M27.7456 14.2019C27.5097 14.8775 27.1245 15.4912 26.6186 15.9974L16.0019 26.6141C15.4952 27.1149 14.8813 27.4939 14.2064 27.7224C14.0197 26.6236 13.9867 25.5041 14.1084 24.3962C14.4129 21.7703 15.5957 19.3243 17.4651 17.4551C19.3345 15.5859 21.7806 14.4033 24.4066 14.0992C25.5189 13.9772 26.6429 14.0117 27.7456 14.2019ZM11.7833 24.1501C12.1474 20.996 13.5674 18.0577 15.8125 15.8126C18.0576 13.5675 20.9959 12.1475 24.1499 11.7834C25.4039 11.6489 26.67 11.6795 27.9159 11.8744C27.5165 9.31372 26.416 6.91358 24.7365 4.93982C23.0569 2.96606 20.8638 1.4957 18.4 0.691616C15.9363 -0.112472 13.298 -0.218913 10.7775 0.384082C8.25695 0.987076 5.95252 2.27597 4.11941 4.10802C2.2863 5.94006 0.996062 8.24374 0.3916 10.7639C-0.212861 13.2841 -0.107955 15.9224 0.694699 18.3866C1.49735 20.8509 2.96643 23.0448 4.93921 24.7255C6.912 26.4062 9.3115 27.5081 11.8719 27.9091C11.6777 26.6654 11.6479 25.4015 11.7833 24.1501Z" fill="white"/>
</g>
<defs>
<clipPath id="clip0_231_3365">
<rect width="28" height="28" fill="white"/>
</clipPath>
</defs>
</svg>
